<?xml version="1.0" encoding="UTF-8" standalone="no"?>
<!-- Generator: Adobe Illustrator 25.0.1, SVG Export Plug-In . SVG Version: 6.00 Build 0)  -->

<svg
   xmlns:dc="http://purl.org/dc/elements/1.1/"
   xmlns:cc="http://creativecommons.org/ns#"
   xmlns:rdf="http://www.w3.org/1999/02/22-rdf-syntax-ns#"
   xmlns:svg="http://www.w3.org/2000/svg"
   xmlns="http://www.w3.org/2000/svg"
   xmlns:sodipodi="http://sodipodi.sourceforge.net/DTD/sodipodi-0.dtd"
   xmlns:inkscape="http://www.inkscape.org/namespaces/inkscape"
   version="1.0"
   id="Layer_1"
   x="0px"
   y="0px"
   viewBox="0 0 200 200"
   xml:space="preserve"
   sodipodi:docname="ust.svg"
   width="200"
   height="200"
   inkscape:version="0.92.4 (5da689c313, 2019-01-14)"><metadata
   id="metadata21"><rdf:RDF><cc:Work
       rdf:about=""><dc:format>image/svg+xml</dc:format><dc:type
         rdf:resource="http://purl.org/dc/dcmitype/StillImage" /><dc:title></dc:title></cc:Work></rdf:RDF></metadata><defs
   id="defs19" /><sodipodi:namedview
   pagecolor="#ffffff"
   bordercolor="#666666"
   borderopacity="1"
   objecttolerance="10"
   gridtolerance="10"
   guidetolerance="10"
   inkscape:pageopacity="0"
   inkscape:pageshadow="2"
   inkscape:window-width="1920"
   inkscape:window-height="991"
   id="namedview17"
   showgrid="false"
   inkscape:zoom="0.9337302"
   inkscape:cx="436.6788"
   inkscape:cy="313.9436"
   inkscape:window-x="-9"
   inkscape:window-y="-9"
   inkscape:window-maximized="1"
   inkscape:current-layer="Layer_1" />
<style
   type="text/css"
   id="style2">
	.st0{fill:#0E3CA5;}
	.st1{fill:#5493F7;}
	.st2{fill:none;}
</style>



<g
   id="g910"
   transform="matrix(1.043033,0,0,1.043033,-92.67509,-218.0379)"><path
     style="fill:#0e3ca5;fill-opacity:1"
     id="path869"
     d="m 173.5,361.2 c 5.1,19.4 23.4,34.2 32.6,33.6 0.3,0 35,-6.7 54,-39.4 14.8,-25.4 9.7,-50 -10.3,-50.5 -7.3,0.5 -85.9,19.3 -76.3,56.3"
     inkscape:connector-curvature="0" /><path
     style="fill:#0e3ca5;fill-opacity:1"
     id="path4"
     d="m 191,215 c -12.7,0 -25.2,2.7 -36.7,7.8 -2,0.8 -3.9,1.8 -5.7,2.8 -1.3,0.7 -2.5,1.4 -3.8,2.1 l 0.3,0.1 c -3.7,2.5 -6.9,5.6 -9.6,9.1 -26,34.4 61.1,59.4 107.7,59.5 21.4,15.4 27.4,-43.4 6.5,-59.7 C 233.3,222.6 212.5,214.9 191,215 Z"
     inkscape:connector-curvature="0" /><path
     id="path6"
     d="m 158.3,235.2 c -11.8,17.3 -51,29.5 -57.4,27.6 v -0.1 l 0.8,-1.6 c 6.8,-12.6 16.3,-23.6 28,-31.9 2.4,-1.7 4.9,-3.4 7.5,-4.9 4,-2.2 8.5,-3.3 13,-3.4 17.5,0.3 8.3,14 8.2,14.2"
     class="st1"
     inkscape:connector-curvature="0"
     style="fill:#5493f7" /><g
     id="g10">
	<path
   id="path8"
   d="m 148.4,364.8 c 0.9,5.7 0,28.1 -1.2,30 -1,0.1 -3.1,0.2 -9.2,-3.2 -11.9,-6.7 -22.2,-15.7 -30.4,-26.7 -6,-8 -10.6,-16.9 -13.8,-26.4 -6.9,-20.7 -6.6,-43.1 1,-63.6 v 0 c 7,9.2 15.1,17.5 22,26.8 6.7,8.8 15.7,23.3 17.5,26.4 11.4,19.2 13.2,31 14.1,36.7"
   class="st1"
   inkscape:connector-curvature="0"
   style="fill:#5493f7" />
</g><path
     id="path12"
     d="m 280.6,309.2 c 0,11.9 -2.2,23.7 -6.6,34.8 -11.1,12 -86.1,-17.5 -86.8,-17.8 -10.3,-4.5 -41.5,-18.2 -44.3,-39.8 -4.1,-31 58.6,-52.6 86.2,-53.4 3.3,0 13.4,0.2 19.2,4.9 20.6,18 32.3,44 32.3,71.3 M 215,385.9 c 4.5,-15.9 43.7,-32.1 52.3,-33 1.1,-0.1 1.5,0.6 1.1,1.5 -8.9,16.3 -22.3,29.7 -38.5,38.7 -8.2,3.9 -17.2,1 -14.9,-7.2 z"
     class="st1"
     inkscape:connector-curvature="0"
     style="fill:#5493f7" /></g>
<rect
   x="64.8"
   y="-220"
   class="st2"
   width="779.2"
   height="230.2"
   id="rect14"
   style="fill:none" />
</svg>