<?xml version="1.0" encoding="UTF-8" standalone="no"?>
<svg
   xmlns:dc="http://purl.org/dc/elements/1.1/"
   xmlns:cc="http://creativecommons.org/ns#"
   xmlns:rdf="http://www.w3.org/1999/02/22-rdf-syntax-ns#"
   xmlns:svg="http://www.w3.org/2000/svg"
   xmlns="http://www.w3.org/2000/svg"
   height="20"
   width="20"
   id="svg8"
   version="1.1"
   viewBox="0 0 20 20"
   data-name="86977684-12db-4850-8f30-233a7c267d11">
  <metadata
     id="metadata14">
    <rdf:RDF>
      <cc:Work
         rdf:about="">
        <dc:format>image/svg+xml</dc:format>
        <dc:type
           rdf:resource="http://purl.org/dc/dcmitype/StillImage" />
        <dc:title></dc:title>
      </cc:Work>
    </rdf:RDF>
  </metadata>
  <defs
     id="defs12" />
  <g
     transform="scale(0.01)"
     id="g4531">
    <path
       d="m 1000,2000 c 554.17,0 1000,-445.83 1000,-1000 C 2000,445.83 1554.17,0 1000,0 445.83,0 0,445.83 0,1000 0,1554.17 445.83,2000 1000,2000 Z"
       id="path2"
       style="fill:#8dd35f" />
    <path
       d="m 1420.494,1222.798 c 0,-219.657 -131.798,-294.9701 -395.392,-326.3454 -188.2822,-25.1092 -225.9385,-75.3127 -225.9385,-163.1875 0,-87.8749 62.7656,-144.3443 188.282,-144.3443 112.9695,0 175.7345,37.6563 207.1105,131.7972 6.281,18.8282 25.109,31.3753 43.937,31.3753 H 1338.9 c 25.109,0 43.936,-18.8282 43.936,-43.9224 v -6.2811 C 1357.728,563.8115 1244.759,457.1236 1100.415,444.5765 V 293.951 c 0,-25.1092 -18.828,-43.9374 -50.204,-50.2185 h -94.1415 c -25.109,0 -43.937,18.8282 -50.218,50.2185 v 144.3444 c -188.2818,25.1092 -307.5168,150.6254 -307.5168,307.5318 0,207.1099 125.5161,288.6888 389.1108,320.0788 175.7345,31.375 232.2195,69.032 232.2195,169.454 0,100.421 -87.875,169.453 -207.111,169.453 -163.1871,0 -219.6716,-69.047 -238.4998,-163.187 -6.266,-25.094 -25.0941,-37.657 -43.9223,-37.657 h -106.703 c -25.0942,0 -43.9224,18.829 -43.9224,43.937 v 6.281 c 25.0942,156.892 125.5161,269.861 332.626,301.251 v 150.626 c 0,25.094 18.828,43.922 50.203,50.203 h 94.1415 c 25.109,0 43.938,-18.828 50.219,-50.203 v -150.626 c 188.282,-31.39 313.798,-163.187 313.798,-332.64 z"
       id="path4"
       style="fill:#ffffff;stroke-width:1.5062538" />
  </g>
</svg>
