<?xml version="1.0" encoding="UTF-8" standalone="no"?>
<svg
   xmlns:dc="http://purl.org/dc/elements/1.1/"
   xmlns:cc="http://creativecommons.org/ns#"
   xmlns:rdf="http://www.w3.org/1999/02/22-rdf-syntax-ns#"
   xmlns:svg="http://www.w3.org/2000/svg"
   xmlns="http://www.w3.org/2000/svg"
   height="50"
   width="50"
   xml:space="preserve"
   viewBox="0 0 50 50"
   y="0px"
   x="0px"
   id="Layer_1"
   version="1.1"><metadata
   id="metadata77"><rdf:RDF><cc:Work
       rdf:about=""><dc:format>image/svg+xml</dc:format><dc:type
         rdf:resource="http://purl.org/dc/dcmitype/StillImage" /><dc:title></dc:title></cc:Work></rdf:RDF></metadata><defs
   id="defs75" />
<style
   id="style2"
   type="text/css">
	.st0{fill:#E2761B;stroke:#E2761B;stroke-linecap:round;stroke-linejoin:round;}
	.st1{fill:#E4761B;stroke:#E4761B;stroke-linecap:round;stroke-linejoin:round;}
	.st2{fill:#D7C1B3;stroke:#D7C1B3;stroke-linecap:round;stroke-linejoin:round;}
	.st3{fill:#233447;stroke:#233447;stroke-linecap:round;stroke-linejoin:round;}
	.st4{fill:#CD6116;stroke:#CD6116;stroke-linecap:round;stroke-linejoin:round;}
	.st5{fill:#E4751F;stroke:#E4751F;stroke-linecap:round;stroke-linejoin:round;}
	.st6{fill:#F6851B;stroke:#F6851B;stroke-linecap:round;stroke-linejoin:round;}
	.st7{fill:#C0AD9E;stroke:#C0AD9E;stroke-linecap:round;stroke-linejoin:round;}
	.st8{fill:#161616;stroke:#161616;stroke-linecap:round;stroke-linejoin:round;}
	.st9{fill:#763D16;stroke:#763D16;stroke-linecap:round;stroke-linejoin:round;}
</style>














<g
   transform="matrix(0.1953125,0,0,0.1953125,-6.113281,-5.019534)"
   id="g918"><polygon
     style="fill:#e2761b;stroke:#e2761b;stroke-linecap:round;stroke-linejoin:round"
     class="st0"
     points="274.1,35.5 174.6,109.4 193,65.8 "
     id="polygon4" /><g
     id="g20">
	<polygon
   style="fill:#e4761b;stroke:#e4761b;stroke-linecap:round;stroke-linejoin:round"
   class="st1"
   points="44.4,35.5 143.1,110.1 125.6,65.8 "
   id="polygon6" />
	<polygon
   style="fill:#e4761b;stroke:#e4761b;stroke-linecap:round;stroke-linejoin:round"
   class="st1"
   points="211.8,247.4 268.5,263 284.8,207.7 238.3,206.8 "
   id="polygon8" />
	<polygon
   style="fill:#e4761b;stroke:#e4761b;stroke-linecap:round;stroke-linejoin:round"
   class="st1"
   points="50.1,263 106.8,247.4 80.3,206.8 33.9,207.7 "
   id="polygon10" />
	<polygon
   style="fill:#e4761b;stroke:#e4761b;stroke-linecap:round;stroke-linejoin:round"
   class="st1"
   points="87.8,162.1 144.1,164.6 142.1,104.1 103.6,138.2 "
   id="polygon12" />
	<polygon
   style="fill:#e4761b;stroke:#e4761b;stroke-linecap:round;stroke-linejoin:round"
   class="st1"
   points="175.9,103.4 174.6,164.6 230.8,162.1 214.9,138.2 "
   id="polygon14" />
	<polygon
   style="fill:#e4761b;stroke:#e4761b;stroke-linecap:round;stroke-linejoin:round"
   class="st1"
   points="106.8,247.4 140.6,230.9 111.4,208.1 "
   id="polygon16" />
	<polygon
   style="fill:#e4761b;stroke:#e4761b;stroke-linecap:round;stroke-linejoin:round"
   class="st1"
   points="177.9,230.9 211.8,247.4 207.1,208.1 "
   id="polygon18" />
</g><g
     id="g26">
	<polygon
   style="fill:#d7c1b3;stroke:#d7c1b3;stroke-linecap:round;stroke-linejoin:round"
   class="st2"
   points="177.9,230.9 180.6,253 180.3,262.3 211.8,247.4 "
   id="polygon22" />
	<polygon
   style="fill:#d7c1b3;stroke:#d7c1b3;stroke-linecap:round;stroke-linejoin:round"
   class="st2"
   points="138.3,262.3 138.1,253 140.6,230.9 106.8,247.4 "
   id="polygon24" />
</g><polygon
     style="fill:#233447;stroke:#233447;stroke-linecap:round;stroke-linejoin:round"
     class="st3"
     points="138.8,193.5 110.6,185.2 130.5,176.1 "
     id="polygon28" /><polygon
     style="fill:#233447;stroke:#233447;stroke-linecap:round;stroke-linejoin:round"
     class="st3"
     points="179.7,193.5 188,176.1 208,185.2 "
     id="polygon30" /><g
     id="g40">
	<polygon
   style="fill:#cd6116;stroke:#cd6116;stroke-linecap:round;stroke-linejoin:round"
   class="st4"
   points="106.8,247.4 111.6,206.8 80.3,207.7 "
   id="polygon32" />
	<polygon
   style="fill:#cd6116;stroke:#cd6116;stroke-linecap:round;stroke-linejoin:round"
   class="st4"
   points="207,206.8 211.8,247.4 238.3,207.7 "
   id="polygon34" />
	<polygon
   style="fill:#cd6116;stroke:#cd6116;stroke-linecap:round;stroke-linejoin:round"
   class="st4"
   points="208.1,185.2 230.8,162.1 174.6,164.6 179.8,193.5 188.1,176.1 "
   id="polygon36" />
	<polygon
   style="fill:#cd6116;stroke:#cd6116;stroke-linecap:round;stroke-linejoin:round"
   class="st4"
   points="87.8,162.1 110.6,185.2 130.6,176.1 138.8,193.5 144.1,164.6 "
   id="polygon38" />
</g><g
     id="g50">
	<polygon
   style="fill:#e4751f;stroke:#e4751f;stroke-linecap:round;stroke-linejoin:round"
   class="st5"
   points="87.8,162.1 111.4,208.1 110.6,185.2 "
   id="polygon42" />
	<polygon
   style="fill:#e4751f;stroke:#e4751f;stroke-linecap:round;stroke-linejoin:round"
   class="st5"
   points="208.1,185.2 207.1,208.1 230.8,162.1 "
   id="polygon44" />
	<polygon
   style="fill:#e4751f;stroke:#e4751f;stroke-linecap:round;stroke-linejoin:round"
   class="st5"
   points="138.8,193.5 145.4,227.6 146.9,182.7 144.1,164.6 "
   id="polygon46" />
	<polygon
   style="fill:#e4751f;stroke:#e4751f;stroke-linecap:round;stroke-linejoin:round"
   class="st5"
   points="171.9,182.6 173.1,227.6 179.8,193.5 174.6,164.6 "
   id="polygon48" />
</g><polygon
     style="fill:#f6851b;stroke:#f6851b;stroke-linecap:round;stroke-linejoin:round"
     class="st6"
     points="208.1,185.2 179.8,193.5 173.1,227.6 177.9,230.9 207.1,208.1 "
     id="polygon52" /><polygon
     style="fill:#f6851b;stroke:#f6851b;stroke-linecap:round;stroke-linejoin:round"
     class="st6"
     points="138.8,193.5 110.6,185.2 111.4,208.1 140.6,230.9 145.4,227.6 "
     id="polygon54" /><polygon
     style="fill:#c0ad9e;stroke:#c0ad9e;stroke-linecap:round;stroke-linejoin:round"
     class="st7"
     points="178.4,271.9 200.8,256.4 211.8,247.4 180.3,262.3 180.6,253 178.1,250.8 140.4,250.8 138.1,253 138.3,262.3 106.8,247.4 117.8,256.4 140.1,271.9 "
     id="polygon56" /><polygon
     style="fill:#161616;stroke:#161616;stroke-linecap:round;stroke-linejoin:round"
     class="st8"
     points="173.1,227.6 145.4,227.6 140.6,230.9 138.1,253 140.4,250.8 178.1,250.8 180.6,253 177.9,230.9 "
     id="polygon58" /><g
     id="g64">
	<polygon
   style="fill:#763d16;stroke:#763d16;stroke-linecap:round;stroke-linejoin:round"
   class="st9"
   points="275.6,124.3 283.6,118.2 278.3,114.2 286.8,73.4 274.1,35.5 177.9,106.9 214.9,138.2 267.2,153.5 278.8,140 273.8,136.4 281.8,129.1 "
   id="polygon60" />
	<polygon
   style="fill:#763d16;stroke:#763d16;stroke-linecap:round;stroke-linejoin:round"
   class="st9"
   points="140.6,106.9 44.4,35.5 31.8,73.4 40.3,114.2 34.9,118.2 42.9,124.3 36.8,129.1 44.8,136.4 39.8,140 51.3,153.5 103.6,138.2 "
   id="polygon62" />
</g><polygon
     style="fill:#f6851b;stroke:#f6851b;stroke-linecap:round;stroke-linejoin:round"
     class="st6"
     points="207.1,208.1 238.3,207.7 284.8,207.7 267.2,153.5 214.9,138.2 230.8,162.1 "
     id="polygon66" /><polygon
     style="fill:#f6851b;stroke:#f6851b;stroke-linecap:round;stroke-linejoin:round"
     class="st6"
     points="80.3,207.7 111.4,208.1 87.8,162.1 103.6,138.2 51.3,153.5 33.9,207.7 "
     id="polygon68" /><polygon
     style="fill:#f6851b;stroke:#f6851b;stroke-linecap:round;stroke-linejoin:round"
     class="st6"
     points="173.3,182.8 174.6,164.6 177.9,106.9 193.1,65.8 125.6,65.8 140.6,106.9 144.1,164.6 145.3,182.8 145.4,227.6 173.1,227.6 "
     id="polygon70" /></g>
</svg>