<?xml version="1.0" encoding="UTF-8" standalone="no"?>
<svg
   xmlns:dc="http://purl.org/dc/elements/1.1/"
   xmlns:cc="http://creativecommons.org/ns#"
   xmlns:rdf="http://www.w3.org/1999/02/22-rdf-syntax-ns#"
   xmlns:svg="http://www.w3.org/2000/svg"
   xmlns="http://www.w3.org/2000/svg"
   height="250"
   width="250"
   xml:space="preserve"
   viewBox="0 0 250 250"
   y="0px"
   x="0px"
   id="Layer_1"
   version="1.1"><metadata
   id="metadata15"><rdf:RDF><cc:Work
       rdf:about=""><dc:format>image/svg+xml</dc:format><dc:type
         rdf:resource="http://purl.org/dc/dcmitype/StillImage" /><dc:title></dc:title></cc:Work></rdf:RDF></metadata><defs
   id="defs13">
	
	
</defs>
<style
   id="style2"
   type="text/css">
	.st0{fill:#90C960;}
	.st1{fill:#262626;}
</style>
<path
   class="st0"
   d="m 233.5747,125.0226 c 0,12.7369 0,25.4699 0,38.2069 0,7.6406 -0.024,15.2772 0.023,22.9178 0.01,1.1095 -0.3175,1.7524 -1.2897,2.313 -24.9878,14.3795 -49.9638,28.7826 -74.9398,43.1856 -10.2554,5.9157 -20.5108,11.8275 -30.7388,17.7902 -1.1251,0.6547 -1.9562,0.8036 -3.1715,0.1019 -22.2946,-12.9329 -44.62046,-25.811 -66.93853,-38.7008 -12.95647,-7.4838 -25.90119,-14.9911 -38.89295,-22.42 -1.15648,-0.6626 -1.21528,-1.4505 -1.21136,-2.5247 0.0157,-38.6656 0.0157,-77.3351 0.0157,-116.00064 0,-2.02285 -0.10977,-4.05747 0.047,-6.06857 0.0588,-0.73701 0.56452,-1.73667 1.17216,-2.0895 28.15535,-16.31222 56.34989,-32.56564 84.53268,-48.83474 7.1584,-4.131957 14.3011,-8.287438 21.4478,-12.4429188 0.882,-0.5135547 1.6112,-0.666445 2.6344,-0.074485 28.0965,16.2847838 56.2166,32.5264338 84.3367,48.7720138 7.1584,4.13588 14.3129,8.2796 21.5105,12.34884 1.1133,0.62724 1.4975,1.29761 1.4936,2.57953 -0.047,20.3109 -0.035,40.62567 -0.031,60.94057 z M 39.91363,127.657 c 0,1.0349 0,1.7249 0,2.4188 0,13.9796 0.0353,27.9593 -0.0431,41.939 -0.008,1.6778 0.56843,2.5285 1.96013,3.3283 27.13999,15.6144 54.25647,31.2641 81.34944,46.9569 1.3838,0.7997 2.3835,0.7253 3.7085,-0.047 13.2701,-7.7347 26.5755,-15.4145 39.877,-23.0982 13.815,-7.9778 27.63,-15.9477 41.4646,-23.8862 1.2976,-0.7449 1.9327,-1.5407 1.9053,-3.1793 -0.1059,-6.1392 -0.1333,-12.2822 0.059,-18.4175 0.082,-2.6265 -0.447,-4.4965 -3.1167,-5.4256 -0.9683,-0.3371 -1.8111,-1.0193 -2.7128,-1.5407 -30.0958,-17.3746 -60.1878,-34.7492 -90.2837,-52.12381 -4.2535,-2.45408 -8.4991,-4.91993 -12.9721,-7.5073 6.782,-3.90459 13.4308,-7.46027 19.7699,-11.50206 3.0342,-1.93661 5.1512,-1.80724 8.2325,0 24.9251,14.62651 49.9795,29.03347 75.0025,43.49927 1.8935,1.0937 3.8262,2.1169 5.9745,3.2969 0,-0.984 0,-1.6857 0,-2.3874 0,-13.9169 -0.043,-27.82997 0.051,-41.74299 0.012,-1.84645 -0.6429,-2.75203 -2.1562,-3.61056 -8.7814,-4.96306 -17.5157,-10.00452 -26.2461,-15.0499 -18.4841,-10.6788 -36.9525,-21.38897 -55.4679,-32.01681 -0.6625,-0.38026 -1.8974,-0.3293 -2.5991,0.0353 -3.2303,1.68179 -6.3783,3.52039 -9.5302,5.34724 -11.259,6.52724 -22.49835,13.08584 -33.76128,19.60524 -12.95647,7.49947 -25.92863,14.96757 -38.89295,22.45136 -0.82717,0.47827 -1.61514,0.81934 -1.60338,2.11694 0.0784,7.24857 0.0118,14.50106 0.0862,21.75355 0.008,0.61157 0.50964,1.46223 1.03887,1.78373 2.88532,1.768 5.85296,3.3989 8.7814,5.0924 25.41507,14.6814 50.83014,29.3628 76.24524,44.0442 7.5387,4.3554 15.0773,8.7147 22.5964,13.0584 -0.055,0.1686 -0.055,0.2666 -0.094,0.2901 -7.5896,4.4024 -15.1792,8.8127 -22.8002,13.1564 -0.4077,0.2313 -1.2232,0.1176 -1.674,-0.1411 -8.7657,-4.9905 -17.5157,-10.0163 -26.25402,-15.0617 -15.22239,-8.7853 -30.43302,-17.5863 -45.64756,-26.3795 -3.99083,-2.3051 -7.97774,-4.5945 -12.24691,-7.0564 z"
   id="path4"
   style="fill:#ffcc00;stroke-width:0.3920265" /><path
   class="st1"
   d="m 39.91363,127.657 c 4.27309,2.4619 8.25608,4.7553 12.23515,7.0564 15.21454,8.7932 30.42517,17.5942 45.64756,26.3795 8.73826,5.0415 17.48436,10.0673 26.25406,15.0617 0.4508,0.2587 1.2662,0.3763 1.6739,0.1411 7.621,-4.3476 15.2106,-8.7579 22.8003,-13.1564 0.043,-0.023 0.043,-0.1215 0.094,-0.2901 -7.5191,-4.3437 -15.0578,-8.703 -22.5965,-13.0584 -25.415,-14.6814 -50.82619,-29.3628 -76.24518,-44.0442 -2.93236,-1.6935 -5.9,-3.3244 -8.7814,-5.0924 -0.52531,-0.3254 -1.03103,-1.17217 -1.03887,-1.78374 -0.0706,-7.25249 -0.008,-14.50106 -0.0862,-21.75355 -0.0157,-1.2976 0.77621,-1.63867 1.60338,-2.11694 12.96432,-7.48379 25.93648,-14.95189 38.89295,-22.45136 11.26292,-6.5194 22.50232,-13.078 33.76132,-19.60524 3.1519,-1.82685 6.2998,-3.66545 9.5301,-5.34724 0.7018,-0.36459 1.9406,-0.41555 2.5992,-0.0353 18.5154,10.62784 36.9798,21.33801 55.4678,32.01681 8.7343,5.04538 17.4687,10.08684 26.2462,15.0499 1.5171,0.85853 2.1679,1.76411 2.1561,3.61056 -0.094,13.91302 -0.051,27.83 -0.051,41.743 0,0.7017 0,1.4034 0,2.3874 -2.1484,-1.1839 -4.081,-2.2032 -5.9745,-3.2969 -25.0192,-14.4658 -50.0736,-28.87277 -75.0025,-43.49928 -3.0814,-1.80724 -5.2022,-1.93661 -8.2326,0 -6.3391,4.04179 -12.9878,7.59747 -19.7699,11.50206 4.473,2.58737 8.7187,5.05322 12.9722,7.5073 30.0919,17.37462 60.1878,34.74922 90.2837,52.12382 0.9016,0.5214 1.7484,1.2036 2.7128,1.5407 2.6697,0.9291 3.1989,2.7991 3.1166,5.4256 -0.1921,6.1353 -0.1686,12.2783 -0.059,18.4175 0.027,1.6386 -0.6076,2.4344 -1.9053,3.1793 -13.8346,7.9385 -27.6496,15.9123 -41.4646,23.8862 -13.3015,7.6798 -26.6029,15.3635 -39.8769,23.0982 -1.3251,0.7723 -2.3248,0.8467 -3.7086,0.047 -27.09292,-15.6928 -54.20939,-31.3425 -81.34938,-46.9569 -1.3917,-0.7998 -1.96798,-1.6505 -1.96014,-3.3283 0.0784,-13.9797 0.0431,-27.9594 0.0431,-41.939 0.0118,-0.6939 0.0118,-1.3839 0.0118,-2.4188 z"
   id="path6"
   style="fill:#262626;stroke-width:0.3920265" />
</svg>