<?xml version="1.0" encoding="UTF-8" standalone="no"?>
<svg
   xmlns:dc="http://purl.org/dc/elements/1.1/"
   xmlns:cc="http://creativecommons.org/ns#"
   xmlns:rdf="http://www.w3.org/1999/02/22-rdf-syntax-ns#"
   xmlns:svg="http://www.w3.org/2000/svg"
   xmlns="http://www.w3.org/2000/svg"
   height="250"
   width="755.9219"
   xml:space="preserve"
   viewBox="0 0 755.922 250"
   y="0px"
   x="0px"
   id="Layer_1"
   version="1.1"><metadata
   id="metadata15"><rdf:RDF><cc:Work
       rdf:about=""><dc:format>image/svg+xml</dc:format><dc:type
         rdf:resource="http://purl.org/dc/dcmitype/StillImage" /><dc:title></dc:title></cc:Work></rdf:RDF></metadata><defs
   id="defs13">
	
	
</defs>
<style
   id="style2"
   type="text/css">
	.st0{fill:#90C960;}
	.st1{fill:#262626;}
</style>
<path
   class="st0"
   d="m 217.1813,125.0226 c 0,12.7369 0,25.4699 0,38.2069 0,7.6406 -0.024,15.2772 0.023,22.9178 0.01,1.1095 -0.3175,1.7524 -1.2897,2.313 -24.9878,14.3795 -49.9638,28.7826 -74.9398,43.1856 -10.2554,5.9157 -20.5108,11.8275 -30.7388,17.7902 -1.1251,0.6547 -1.9562,0.8036 -3.1715,0.1019 C 84.7699,236.6051 62.44404,223.727 40.12597,210.8372 27.1695,203.3534 14.22478,195.8461 1.233021,188.4172 c -1.1564799,-0.6626 -1.2152799,-1.4505 -1.2113599,-2.5247 0.0157,-38.6656 0.0157,-77.3351 0.0157,-116.00063 0,-2.02285 -0.10977,-4.05747 0.047,-6.06857 0.0588,-0.73701 0.56452,-1.73667 1.1721599,-2.0895 C 29.41187,45.42158 57.60641,29.16816 85.7892,12.89906 92.9476,8.767106 100.0903,4.611625 107.237,0.4561439 c 0.882,-0.5135547 1.6112,-0.666445 2.6344,-0.074485 28.0965,16.2847811 56.2166,32.5264311 84.3367,48.7720111 7.1584,4.13588 14.3129,8.2796 21.5105,12.34884 1.1133,0.62724 1.4975,1.29761 1.4936,2.57953 -0.047,20.3109 -0.035,40.62566 -0.031,60.94056 z M 23.52023,127.657 c 0,1.0349 0,1.7249 0,2.4188 0,13.9796 0.0353,27.9593 -0.0431,41.939 -0.008,1.6778 0.56843,2.5285 1.96013,3.3283 27.13999,15.6144 54.25647,31.2641 81.34944,46.9569 1.3838,0.7997 2.3835,0.7253 3.7085,-0.047 13.2701,-7.7347 26.5755,-15.4145 39.877,-23.0982 13.815,-7.9778 27.63,-15.9477 41.4646,-23.8862 1.2976,-0.7449 1.9327,-1.5407 1.9053,-3.1793 -0.1059,-6.1392 -0.1333,-12.2822 0.059,-18.4175 0.082,-2.6265 -0.447,-4.4965 -3.1167,-5.4256 -0.9683,-0.3371 -1.8111,-1.0193 -2.7128,-1.5407 -30.0958,-17.3746 -60.1878,-34.7492 -90.2837,-52.1238 -4.2535,-2.45408 -8.4991,-4.91993 -12.9721,-7.5073 6.782,-3.90459 13.4308,-7.46027 19.7699,-11.50206 3.0342,-1.93661 5.1512,-1.80724 8.2325,0 24.9251,14.62651 49.9795,29.03346 75.0025,43.49926 1.8935,1.0937 3.8262,2.1169 5.9745,3.2969 0,-0.984 0,-1.6857 0,-2.3874 0,-13.9169 -0.043,-27.82996 0.051,-41.74298 0.012,-1.84645 -0.6429,-2.75203 -2.1562,-3.61056 -8.7814,-4.96306 -17.5157,-10.00452 -26.2461,-15.0499 -18.4841,-10.6788 -36.9525,-21.38897 -55.4679,-32.01681 -0.6625,-0.38026 -1.8974,-0.3293 -2.5991,0.0353 -3.2303,1.68179 -6.3783,3.52039 -9.5302,5.34724 C 86.4877,39.47063 75.24835,46.02923 63.98542,52.54863 51.02895,60.0481 38.05679,67.5162 25.09247,74.99999 c -0.82717,0.47827 -1.61514,0.81934 -1.60338,2.11694 0.0784,7.24857 0.0118,14.50106 0.0862,21.75355 0.008,0.61157 0.50964,1.46222 1.03887,1.78372 2.88532,1.768 5.85296,3.3989 8.7814,5.0924 25.41507,14.6814 50.83014,29.3628 76.24524,44.0442 7.5387,4.3554 15.0773,8.7147 22.5964,13.0584 -0.055,0.1686 -0.055,0.2666 -0.094,0.2901 -7.5896,4.4024 -15.1792,8.8127 -22.8002,13.1564 -0.4077,0.2313 -1.2232,0.1176 -1.674,-0.1411 -8.7657,-4.9905 -17.5157,-10.0163 -26.25402,-15.0617 -15.22239,-8.7853 -30.43302,-17.5863 -45.64756,-26.3795 -3.99083,-2.3051 -7.97774,-4.5945 -12.24691,-7.0564 z"
   id="path4"
   style="fill:#ffcc00;stroke-width:0.3920265" /><path
   class="st1"
   d="m 23.52023,127.657 c 4.27309,2.4619 8.25608,4.7553 12.23515,7.0564 15.21454,8.7932 30.42517,17.5942 45.64756,26.3795 8.73826,5.0415 17.48436,10.0673 26.25406,15.0617 0.4508,0.2587 1.2662,0.3763 1.6739,0.1411 7.621,-4.3476 15.2106,-8.7579 22.8003,-13.1564 0.043,-0.023 0.043,-0.1215 0.094,-0.2901 -7.5191,-4.3437 -15.0578,-8.703 -22.5965,-13.0584 -25.415,-14.6814 -50.82619,-29.3628 -76.24518,-44.0442 -2.93236,-1.6935 -5.9,-3.3244 -8.7814,-5.0924 -0.52531,-0.3254 -1.03103,-1.17216 -1.03887,-1.78373 -0.0706,-7.25249 -0.008,-14.50106 -0.0862,-21.75355 -0.0157,-1.2976 0.77621,-1.63867 1.60338,-2.11694 12.96432,-7.48379 25.93648,-14.95189 38.89295,-22.45136 11.26292,-6.5194 22.50232,-13.078 33.76132,-19.60524 3.1519,-1.82685 6.2998,-3.66545 9.5301,-5.34724 0.7018,-0.36459 1.9406,-0.41555 2.5992,-0.0353 18.5154,10.62784 36.9798,21.33801 55.4678,32.01681 8.7343,5.04538 17.4687,10.08684 26.2462,15.0499 1.5171,0.85853 2.1679,1.76411 2.1561,3.61056 -0.094,13.91302 -0.051,27.82999 -0.051,41.74299 0,0.7017 0,1.4034 0,2.3874 -2.1484,-1.1839 -4.081,-2.2032 -5.9745,-3.2969 -25.0192,-14.4658 -50.0736,-28.87276 -75.0025,-43.49927 -3.0814,-1.80724 -5.2022,-1.93661 -8.2326,0 -6.3391,4.04179 -12.9878,7.59747 -19.7699,11.50206 4.473,2.58737 8.7187,5.05322 12.9722,7.5073 30.0919,17.37461 60.1878,34.74921 90.2837,52.12381 0.9016,0.5214 1.7484,1.2036 2.7128,1.5407 2.6697,0.9291 3.1989,2.7991 3.1166,5.4256 -0.1921,6.1353 -0.1686,12.2783 -0.059,18.4175 0.027,1.6386 -0.6076,2.4344 -1.9053,3.1793 -13.8346,7.9385 -27.6496,15.9123 -41.4646,23.8862 -13.3015,7.6798 -26.6029,15.3635 -39.8769,23.0982 -1.3251,0.7723 -2.3248,0.8467 -3.7086,0.047 -27.09292,-15.6928 -54.20939,-31.3425 -81.34938,-46.9569 -1.3917,-0.7998 -1.96798,-1.6505 -1.96014,-3.3283 0.0784,-13.9797 0.0431,-27.9594 0.0431,-41.939 0.0118,-0.6939 0.0118,-1.3839 0.0118,-2.4188 z"
   id="path6"
   style="fill:#262626;stroke-width:0.3920265" />
<g
   transform="matrix(1.046539,0,0,1.046539,-26.31719,-9.559304)"
   id="text871"
   style="font-style:normal;font-weight:normal;font-size:134.8370972px;line-height:1.25;font-family:sans-serif;letter-spacing:3px;word-spacing:0px;fill:#262626;fill-opacity:1;stroke:none;stroke-width:1.2640978"
   aria-label="tablepay"><path
     id="path877"
     style="font-style:normal;font-variant:normal;font-weight:normal;font-stretch:normal;font-family:Impact;-inkscape-font-specification:Impact;letter-spacing:3px;fill:#262626;fill-opacity:1;stroke-width:1.2640978"
     d="m 275.8552,76.65001 v 13.76023 h 7.1764 v 13.82606 h -7.1764 v 46.7453 q 0,8.6248 0.8559,9.6124 0.9218,0.9876 7.4398,0.9876 v 14.0894 h -10.7317 q -9.0857,0 -12.9702,-0.7242 -3.8844,-0.7901 -6.8471,-3.4895 -2.9628,-2.7652 -3.687,-6.2546 -0.7242,-3.5553 -0.7242,-16.5913 v -44.3751 h -5.728 V 90.41024 h 5.728 V 76.65001 Z" /><path
     id="path879"
     style="font-style:normal;font-variant:normal;font-weight:normal;font-stretch:normal;font-family:Impact;-inkscape-font-specification:Impact;letter-spacing:3px;fill:#262626;fill-opacity:1;stroke-width:1.2640978"
     d="m 315.6589,122.1444 h -24.9527 v -5.8597 q 0,-10.1391 2.3043,-15.6037 2.3702,-5.53039 9.4149,-9.74405 7.0447,-4.21366 18.3031,-4.21366 13.4969,0 20.3441,4.80621 6.8472,4.74036 8.2298,11.7192 1.3826,6.9131 1.3826,28.5739 v 43.8484 h -25.8745 v -7.7689 q -2.4361,4.6745 -6.3205,7.0447 -3.8187,2.3043 -9.1516,2.3043 -6.9788,0 -12.8385,-3.8844 -5.7937,-3.9503 -5.7937,-17.1839 v -7.1764 q 0,-9.8099 3.0944,-13.3652 3.0944,-3.5552 15.3403,-8.2956 13.1019,-5.1354 14.0236,-6.913 0.9217,-1.7777 0.9217,-7.2423 0,-6.8472 -1.0534,-8.8881 -0.9876,-2.1069 -3.3577,-2.1069 -2.6994,0 -3.3578,1.7777 -0.6584,1.7118 -0.6584,9.0198 z m 8.4273,11.9826 q -6.3863,4.6745 -7.4397,7.8347 -0.9876,3.1603 -0.9876,9.0857 0,6.7814 0.8559,8.7565 0.9218,1.9752 3.5553,1.9752 2.5019,0 3.2261,-1.5143 0.79,-1.5801 0.79,-8.164 z" /><path
     id="path881"
     style="font-style:normal;font-variant:normal;font-weight:normal;font-stretch:normal;font-family:Impact;-inkscape-font-specification:Impact;letter-spacing:3px;fill:#262626;fill-opacity:1;stroke-width:1.2640978"
     d="m 389.4352,69.07859 v 25.21612 q 3.292,-3.81863 7.3081,-5.6621 4.082,-1.90932 8.8224,-1.90932 5.4645,0 9.4807,1.7118 4.0161,1.7118 6.123,4.80621 2.1068,3.0944 2.5018,6.05713 0.4609,2.96277 0.4609,12.64097 v 39.3714 q 0,9.6124 -1.3168,14.3528 -1.2509,4.6745 -5.9913,8.1639 -4.7403,3.4236 -11.2583,3.4236 -4.6746,0 -8.7566,-2.041 -4.0161,-2.041 -7.3739,-6.1229 l -1.7118,6.5838 H 362.8365 V 69.07859 Z m 8.0982,44.04591 q 0,-6.7814 -0.8559,-8.8223 -0.8559,-2.1069 -3.3578,-2.1069 -2.436,0 -3.1602,1.8435 -0.7243,1.7776 -0.7243,9.0857 v 37.6596 q 0,7.0447 0.7901,9.0198 0.8559,1.9752 3.2919,1.9752 2.5019,0 3.2261,-2.041 0.7901,-2.041 0.7901,-9.8099 z" /><path
     id="path883"
     style="font-style:normal;font-variant:normal;font-weight:normal;font-stretch:normal;font-family:Impact;-inkscape-font-specification:Impact;letter-spacing:3px;fill:#262626;fill-opacity:1;stroke-width:1.2640978"
     d="M 463.2774,69.07859 V 175.671 H 435.8886 V 69.07859 Z" /><path
     id="path885"
     style="font-style:normal;font-variant:normal;font-weight:normal;font-stretch:normal;font-family:Impact;-inkscape-font-specification:Impact;letter-spacing:3px;fill:#262626;fill-opacity:1;stroke-width:1.2640978"
     d="M 536.0003,133.5344 H 501.5668 V 152.43 q 0,5.9255 0.8559,7.6373 0.8559,1.7118 3.2919,1.7118 3.0286,0 4.0161,-2.2385 1.0535,-2.3044 1.0535,-8.8224 v -11.5217 h 25.2161 v 6.4522 q 0,8.0981 -1.0534,12.4434 -0.9876,4.3454 -4.7404,9.2833 -3.7528,4.9378 -9.5466,7.4397 -5.7279,2.436 -14.4186,2.436 -8.4273,0 -14.8795,-2.436 -6.4521,-2.436 -10.0733,-6.6497 -3.5552,-4.2795 -4.9378,-9.349 -1.3826,-5.1354 -1.3826,-14.8795 v -25.4795 q 0,-11.4559 3.0944,-18.0397 3.0944,-6.6497 10.1391,-10.13913 7.0447,-3.55528 16.1962,-3.55528 11.1926,0 18.4348,4.2795 7.3081,4.21366 10.2049,11.25841 2.9628,6.9788 2.9628,19.6856 z m -26.6646,-14.2211 v -6.3863 q 0,-6.7814 -0.7242,-8.7565 -0.7242,-1.9752 -2.9627,-1.9752 -2.7653,0 -3.4236,1.7118 -0.6584,1.646 -0.6584,9.0199 v 6.3863 z" /><path
     id="path887"
     style="font-style:normal;font-variant:normal;font-weight:normal;font-stretch:normal;font-family:Impact;-inkscape-font-specification:Impact;letter-spacing:3px;fill:#262626;fill-opacity:1;stroke-width:1.2640978"
     d="m 574.8164,88.30341 -0.4609,7.7031 q 3.5553,-4.67453 7.8348,-6.97887 4.2795,-2.30435 9.3491,-2.30435 6.1888,0 10.6658,3.35776 4.5428,3.29192 5.6621,7.63726 1.1192,4.34529 1.1192,14.74779 v 36.8037 q 0,11.9168 -1.4484,16.9863 -1.3826,5.0037 -5.7938,8.0323 -4.3453,2.9627 -10.5341,2.9627 -4.9379,0 -9.1516,-2.3043 -4.2136,-2.3044 -7.7031,-6.8472 v 20.0149 H 547.7568 V 88.30341 Z m 7.5714,25.41359 q 0,-8.0981 -0.5925,-9.8099 -0.5926,-1.7118 -3.292,-1.7118 -2.6335,0 -3.4236,1.9752 -0.7242,1.9751 -0.7242,9.5465 v 36.2112 q 0,7.9006 0.7901,9.8757 0.79,1.9752 3.4236,1.9752 2.5677,0 3.1602,-1.7776 0.6584,-1.8435 0.6584,-8.8224 z" /><path
     id="path889"
     style="font-style:normal;font-variant:normal;font-weight:normal;font-stretch:normal;font-family:Impact;-inkscape-font-specification:Impact;letter-spacing:3px;fill:#262626;fill-opacity:1;stroke-width:1.2640978"
     d="m 644.5765,122.1444 h -24.9527 v -5.8597 q 0,-10.1391 2.3043,-15.6037 2.3702,-5.53039 9.4149,-9.74405 7.0447,-4.21366 18.3031,-4.21366 13.4969,0 20.3441,4.80621 6.8472,4.74036 8.2298,11.7192 1.3826,6.9131 1.3826,28.5739 v 43.8484 h -25.8745 v -7.7689 q -2.436,4.6745 -6.3205,7.0447 -3.8186,2.3043 -9.1516,2.3043 -6.9788,0 -12.8384,-3.8844 -5.7938,-3.9503 -5.7938,-17.1839 v -7.1764 q 0,-9.8099 3.0944,-13.3652 3.0944,-3.5552 15.3403,-8.2956 13.1019,-5.1354 14.0236,-6.913 0.9218,-1.7777 0.9218,-7.2423 0,-6.8472 -1.0535,-8.8881 -0.9875,-2.1069 -3.3577,-2.1069 -2.6994,0 -3.3578,1.7777 -0.6584,1.7118 -0.6584,9.0198 z m 8.4274,11.9826 q -6.3864,4.6745 -7.4398,7.8347 -0.9876,3.1603 -0.9876,9.0857 0,6.7814 0.8559,8.7565 0.9218,1.9752 3.5553,1.9752 2.5019,0 3.2261,-1.5143 0.7901,-1.5801 0.7901,-8.164 z" /><path
     id="path891"
     style="font-style:normal;font-variant:normal;font-weight:normal;font-stretch:normal;font-family:Impact;-inkscape-font-specification:Impact;letter-spacing:3px;fill:#262626;fill-opacity:1;stroke-width:1.2640978"
     d="m 747.4534,88.30341 -7.6372,63.20489 q -1.7777,15.0112 -3.0286,20.4758 -1.1851,5.4645 -4.0161,9.0198 -2.8311,3.5553 -7.9007,5.2013 -5.0037,1.7118 -16.0645,1.7118 h -16.1304 v -13.9578 q 6.1888,0 7.9664,-0.5925 1.7776,-0.6584 1.7776,-2.8311 0,-1.0534 -1.6459,-9.1515 L 686.2237,88.30341 h 24.1627 l 8.6907,58.92539 4.2136,-58.92539 z" /></g></svg>