<?xml version="1.0" encoding="UTF-8" standalone="no"?>
<svg
   xmlns:dc="http://purl.org/dc/elements/1.1/"
   xmlns:cc="http://creativecommons.org/ns#"
   xmlns:rdf="http://www.w3.org/1999/02/22-rdf-syntax-ns#"
   xmlns:svg="http://www.w3.org/2000/svg"
   xmlns="http://www.w3.org/2000/svg"
   id="svg879"
   version="1.1"
   height="100"
   width="100">
  <metadata
     id="metadata885">
    <rdf:RDF>
      <cc:Work
         rdf:about="">
        <dc:format>image/svg+xml</dc:format>
        <dc:type
           rdf:resource="http://purl.org/dc/dcmitype/StillImage" />
        <dc:title></dc:title>
      </cc:Work>
    </rdf:RDF>
  </metadata>
  <defs
     id="defs883" />
  <g
     transform="matrix(0.463392,0,0,0.463392,6.30213,-0.9731154)"
     id="g946">
    <path
       style="fill:#f3ba2f"
       id="svg_2"
       class="st0"
       d="m 115.1,181.3 v 24.2 l -21.09998,12.4 -20.5,-12.4 v -24.2 l 20.5,12.4 z M 2.20002,97.59998 22.70002,110 v 41.5 l 35.3,21.1 v 24.2 l -55.8,-32.9 z m 183.59998,0 V 164 l -56.4,32.9 v -24.2 l 35.3,-21.1 v -41.5 z m -56.5,-32.9 21.1,12.4 v 0 V 101.3 l -35.3,21.1 v 42.1 l -20.49998,12.4 -20.4,-12.4 v -42.2 l -36.6,-21.1 V 76.99998 l 21.1,-12.4 35.3,21.1 z M 37.60002,118.6 l 20.5,12.4 v 24.2 l -20.5,-12.4 z m 112.79998,0 v 24.2 l -20.5,12.4 V 131 Z M 22.70002,43.59998 l 21.1,12.4 -21.1,12.4 v 24.2 l -20.5,-12.4 v -24.2 z m 142.59998,0 21.1,12.4 v 24.2 l -21.1,12.4 v -24.2 l -20.5,-12.4 z m -71.29998,0 21.09998,12.4 -21.09998,12.4 -20.5,-12.4 z m 0,-41.5 56.39998,32.9 -20.5,12.4 -35.29998,-21.1 -36,21.1 -20.5,-12.4 z"
       stroke="null" />
  </g>
</svg>
