<?xml version="1.0" encoding="UTF-8" standalone="no"?>
<svg
   xmlns:dc="http://purl.org/dc/elements/1.1/"
   xmlns:cc="http://creativecommons.org/ns#"
   xmlns:rdf="http://www.w3.org/1999/02/22-rdf-syntax-ns#"
   xmlns:svg="http://www.w3.org/2000/svg"
   xmlns="http://www.w3.org/2000/svg"
   xml:space="preserve"
   style="enable-background:new 0 0 460 460;"
   viewBox="0 0 460 460"
   y="0px"
   x="0px"
   id="Layer_1"
   version="1.1"><metadata
   id="metadata47"><rdf:RDF><cc:Work
       rdf:about=""><dc:format>image/svg+xml</dc:format><dc:type
         rdf:resource="http://purl.org/dc/dcmitype/StillImage" /><dc:title></dc:title></cc:Work></rdf:RDF></metadata><defs
   id="defs45" />
<g
   transform="matrix(0.6521739,0,0,0.6521739,79.99968,80)"
   style="fill:#808080"
   id="g10">
	<g
   style="fill:#808080"
   id="g8">
		<g
   style="fill:#808080"
   id="g6">
			<path
   style="fill:#808080"
   id="path2"
   d="M 425.934,0 H 171.662 C 153.54,0 138.798,14.743 138.798,32.864 v 77.134 h 30 V 32.864 c 0,-1.579 1.285,-2.864 2.864,-2.864 h 254.272 c 1.579,0 2.864,1.285 2.864,2.864 v 254.272 c 0,1.58 -1.285,2.865 -2.864,2.865 h -74.729 v 30 h 74.729 c 18.121,0 32.864,-14.743 32.864,-32.865 V 32.864 C 458.797,14.743 444.055,0 425.934,0 Z" />
			<path
   style="fill:#808080"
   id="path4"
   d="M 288.339,139.998 H 34.068 c -18.122,0 -32.865,14.743 -32.865,32.865 V 427.135 C 1.204,445.257 15.946,460 34.068,460 H 288.34 c 18.122,0 32.865,-14.743 32.865,-32.864 V 172.863 c 0,-18.122 -14.744,-32.865 -32.866,-32.865 z m 0,290.002 H 34.068 c -1.58,0 -2.865,-1.285 -2.865,-2.864 V 172.863 c 0,-1.58 1.285,-2.865 2.865,-2.865 H 288.34 c 1.58,0 2.865,1.285 2.865,2.865 v 254.273 0 c 0,1.579 -1.286,2.864 -2.865,2.864 z" />
		</g>
	</g>
</g>
<g
   id="g12">
</g>
<g
   id="g14">
</g>
<g
   id="g16">
</g>
<g
   id="g18">
</g>
<g
   id="g20">
</g>
<g
   id="g22">
</g>
<g
   id="g24">
</g>
<g
   id="g26">
</g>
<g
   id="g28">
</g>
<g
   id="g30">
</g>
<g
   id="g32">
</g>
<g
   id="g34">
</g>
<g
   id="g36">
</g>
<g
   id="g38">
</g>
<g
   id="g40">
</g>
</svg>